<svg xmlns="http://www.w3.org/2000/svg" viewBox="0 0 600 200" width="600" height="200">
  <defs>
    <linearGradient id="g1" x1="10%" y1="90%" x2="90%" y2="5%">
      <stop offset="0%" stop-color="#FFCF4D"/>
      <stop offset="40%" stop-color="#FF7A2F"/>
      <stop offset="100%" stop-color="#D6357E"/>
    </linearGradient>
    <linearGradient id="g2" x1="0%" y1="0%" x2="100%" y2="100%">
      <stop offset="0%" stop-color="#FFCF4D"/>
      <stop offset="45%" stop-color="#FF7A2F"/>
      <stop offset="100%" stop-color="#D6357E"/>
    </linearGradient>
    <filter id="sh">
      <feDropShadow dx="0" dy="4" stdDeviation="8" flood-color="#FF7A2F25"/>
    </filter>
  </defs>

  <!-- White background -->
  <rect width="600" height="200" rx="20" fill="#FFFFFF"/>
  <rect width="600" height="200" rx="20" fill="none" stroke="#EBEBEB" stroke-width="1.5"/>

  <!-- SYMBOL -->
  <g transform="translate(30, 10) scale(1.78)" filter="url(#sh)">
    <path d="M 52 88 C 30 88, 14 74, 14 55 C 14 36, 28 24, 42 20 C 50 17, 58 16, 62 10 C 64 6, 63 2, 63 2 C 72 10, 76 22, 72 34 C 70 40, 66 45, 62 48 L 82 48 L 82 56 C 82 73, 69 88, 52 88 Z"
          fill="url(#g1)"/>
    <path d="M 52 78 C 36 78, 26 68, 26 55 C 26 42, 35 33, 46 30 C 53 27, 60 26, 64 20 C 66 30, 62 38, 56 42 L 70 42 L 70 56 C 70 63, 62 78, 52 78 Z"
          fill="#FFFFFF"/>
    <rect x="44" y="51" width="10" height="10" transform="rotate(45 49 56)" fill="url(#g1)" opacity="0.9"/>
  </g>

  <!-- WORDMARK dark -->
  <text x="205" y="96" font-family="'Arial Black','Helvetica Neue',sans-serif" font-size="58" font-weight="900" fill="#111114" letter-spacing="-1.5">Guajira</text>
  <text x="205" y="168" font-family="'Arial Black','Helvetica Neue',sans-serif" font-size="72" font-weight="900" fill="url(#g2)" letter-spacing="-2.5">GO</text>

  <!-- Tagline -->
  <line x1="205" y1="182" x2="237" y2="182" stroke="#FF7A2F" stroke-width="1.5" opacity="0.4"/>
  <text x="244" y="186" font-family="'Arial',sans-serif" font-size="11" fill="#AAAAAA" letter-spacing="4">UNA APP · TODA LA GUAJIRA</text>
  <line x1="530" y1="182" x2="562" y2="182" stroke="#D6357E" stroke-width="1.5" opacity="0.4"/>
</svg>
