<svg xmlns="http://www.w3.org/2000/svg" viewBox="0 0 100 100" width="100" height="100">
  <defs>
    <linearGradient id="gbg" x1="0%" y1="0%" x2="100%" y2="100%">
      <stop offset="0%" stop-color="#FFCF4D"/>
      <stop offset="45%" stop-color="#FF7A2F"/>
      <stop offset="100%" stop-color="#D6357E"/>
    </linearGradient>
    <filter id="sh">
      <feDropShadow dx="0" dy="3" stdDeviation="6" flood-color="#00000030"/>
    </filter>
  </defs>
  <rect width="100" height="100" rx="22" fill="url(#gbg)"/>
  <g transform="translate(9, 5)" filter="url(#sh)">
    <path d="M 52 88 C 30 88, 14 74, 14 55 C 14 36, 28 24, 42 20 C 50 17, 58 16, 62 10 C 64 6, 63 2, 63 2 C 72 10, 76 22, 72 34 C 70 40, 66 45, 62 48 L 82 48 L 82 56 C 82 73, 69 88, 52 88 Z"
          fill="rgba(255,255,255,0.95)" transform="scale(0.84)"/>
    <path d="M 52 78 C 36 78, 26 68, 26 55 C 26 42, 35 33, 46 30 C 53 27, 60 26, 64 20 C 66 30, 62 38, 56 42 L 70 42 L 70 56 C 70 63, 62 78, 52 78 Z"
          fill="url(#gbg)" transform="scale(0.84)"/>
    <rect x="44" y="51" width="10" height="10" transform="rotate(45 49 56) scale(0.84)" fill="white" opacity="0.95"/>
  </g>
</svg>
